# xmcd
# 
# Track frame offsets:
#     150
#     38851
#     118618
#     164116
#     207390
#     226941
# 
# Disc length: 3780
# 
# Revision: 1
# Processed by: cddbd v1.5.2PL0 Copyright (c) Steve Scherf et al.
# Submitted via: fre:ac v1.0.31
# 
DISCID=500ec206
DTITLE=Weather Report - The Legendary Live Tapes 1978-1981 Disc 3
DYEAR=2015
DGENRE=Jazz
TTITLE0=Fast City
TTITLE1=Madagascar
TTITLE2=Night Passage
TTITLE3=Dream Clock
TTITLE4=Rockin' In Rhythm
TTITLE5=Port of Entry
EXTD=YEAR: 2015
EXTT0=
EXTT1=
EXTT2=
EXTT3=
EXTT4=
EXTT5=
PLAYORDER=
